<?xml version="1.0" encoding="UTF-8"?>
<svg id="Layer_1" data-name="Layer 1" xmlns="http://www.w3.org/2000/svg" viewBox="0 0 1920 2574.63">
  <defs>
    <style>
      .cls-1 {
        fill: #2e55c6;
      }
    </style>
  </defs>
  <path class="cls-1" d="M1138.94,822.66c47.02,61.21,123.22,79.25,205.24,93.72,204.3,36.05,514.32-4.39,566.58,54.66,23.61,26.66-2.8,54.05-25.69,69.37-58.97,39.63-337,55.72-490.3,98.92-241.45,68.07,260.51,529.31,216.33,662.41-34.79,104.94-532.73-656.15-566.17-309.81-56.37,583.53-51.86,977.91-100.3,1065.37-5.65,10.16-39.67,33.94-49.7-1.26-28.21-117.41-27.31-596.53-55.39-879.56-15.4-154.76-22.31-268.92-89.45-340.57-37.39-39.79-110.59-27.07-155.49-11.5-94.21,32.68-150.74,74.5-247.55,108.35-42.23,14.75-281.64,122.13-325.78,114.04-13.29-2.44-22.23-17.92-21.17-32.68,4.75-62.38,328.95-294.65,383.69-336.35,40.4-30.77,127.86-104.12,152.77-148.1,17.23-30.44,15.2-54.87-.08-84.21-30.81-58.85-97.01-117.45-137.86-168.62-47.43-59.42-192.52-215.03-215.11-282.42-8.49-25.32,17.15-36.25,39.87-29.51,103.11,30.77,342.04,250.92,447.22,278.31,45.64,11.91,75.19,17.23,116.48-11.01,80.43-55.11,131.72-295.79,163.22-402.11,32.39-109.2,90.55-270.1,137.49-316.31,18.82-18.49,40.19-20.69,50.27,7.44,24.51,68.77-39.75,383.94-46.41,475.99-7.11,97.3-11.75,248.44,47.31,325.42"/>
</svg>