<?xml version="1.0" encoding="UTF-8"?>
<svg id="Layer_1" xmlns="http://www.w3.org/2000/svg" xmlns:xlink="http://www.w3.org/1999/xlink" version="1.1" viewBox="0 0 1920 2331.3">
  <!-- Generator: Adobe Illustrator 29.5.1, SVG Export Plug-In . SVG Version: 2.1.0 Build 141)  -->
  <defs>
    <style>
      .st0 {
        fill: #fff;
      }

      .st1 {
        fill: #e5e6e7;
      }

      .st2 {
        fill: #f0f1f1;
      }

      .st3 {
        fill: #aebc89;
      }
    </style>
  </defs>
  <ellipse class="st3" cx="960" cy="1165.6" rx="960" ry="1165.6"/>
  <g>
    <ellipse class="st1" cx="960" cy="1165.6" rx="792.2" ry="988.5"/>
    <path class="st0" d="M960,2158.1c-107.6,0-212-26.3-310.2-78.1-94.8-50-180-121.7-253-212.9-73-91.1-130.4-197.3-170.4-315.4-41.4-122.3-62.5-252.2-62.5-386s21-263.8,62.5-386c40-118.2,97.4-224.3,170.4-315.4,73.1-91.2,158.2-162.8,253-212.9,98.2-51.9,202.6-78.1,310.2-78.1s212,26.3,310.2,78.1c94.8,50,180,121.7,253.1,212.9,73,91.1,130.4,197.3,170.4,315.4,41.4,122.3,62.5,252.2,62.5,386s-21,263.8-62.5,386c-40.1,118.2-97.4,224.3-170.4,315.4-73.1,91.2-158.2,162.8-253.1,212.9-98.2,51.9-202.6,78.1-310.2,78.1ZM960,181.2c-106.3,0-209.4,26-306.5,77.2-93.8,49.5-178.1,120.5-250.5,210.8-72.5,90.4-129.4,195.7-169.1,313-41.2,121.5-62,250.5-62,383.5s20.9,262,62,383.5c39.8,117.3,96.6,222.6,169.1,313,72.4,90.3,156.7,161.3,250.5,210.8,97.1,51.2,200.2,77.2,306.5,77.2s209.4-26,306.5-77.2c93.8-49.5,178.1-120.4,250.5-210.8,72.5-90.4,129.3-195.7,169.1-313,41.2-121.4,62-250.5,62-383.5s-20.9-262-62-383.5c-39.8-117.3-96.6-222.6-169.1-313-72.4-90.4-156.7-161.3-250.5-210.8-97.1-51.2-200.2-77.2-306.5-77.2h0Z"/>
  </g>
  <g>
    <ellipse class="st1" cx="960" cy="1165.6" rx="792.2" ry="988.5"/>
    <path class="st2" d="M960,2166.1c-108.9,0-214.5-26.6-314-79.1-95.8-50.6-181.8-122.9-255.6-214.9-73.6-91.9-131.4-198.8-171.8-317.8-41.7-123.1-62.9-253.8-62.9-388.6s21.2-265.5,62.9-388.6c40.3-119,98.1-226,171.8-317.9,73.8-92.1,159.8-164.4,255.6-214.9,99.4-52.5,205-79.1,314-79.1s214.5,26.6,313.9,79.1c95.8,50.6,181.8,122.9,255.6,214.9,73.6,91.9,131.4,198.8,171.8,317.9,41.7,123.1,62.9,253.8,62.9,388.6s-21.2,265.5-62.9,388.6c-40.3,119-98.1,226-171.8,317.8-73.8,92.1-159.8,164.4-255.6,214.9-99.4,52.5-205,79.1-314,79.1h0ZM960,189.2c-105,0-206.8,25.7-302.7,76.3-92.9,49-176.3,119.2-248,208.7-71.9,89.7-128.3,194.2-167.8,310.5-40.9,120.6-61.6,248.8-61.6,380.9s20.7,260.3,61.6,380.9c39.4,116.4,95.9,220.9,167.8,310.5,71.7,89.5,155.2,159.7,248,208.7,95.9,50.6,197.8,76.3,302.7,76.3s206.8-25.7,302.7-76.3c92.9-49,176.3-119.2,248-208.7,71.9-89.7,128.3-194.2,167.8-310.5,40.9-120.6,61.6-248.8,61.6-380.9s-20.7-260.3-61.6-380.9c-39.4-116.4-95.9-220.9-167.8-310.5-71.7-89.5-155.2-159.7-248-208.7-95.9-50.6-197.8-76.3-302.7-76.3h0Z"/>
  </g>
  <g>
    <path d="M445.8,410h70.5v109.2h-169v43.8h169v86.5c0,13.5-2.6,26.3-7.8,38.2s-12.1,22.3-20.9,31.1c-8.8,8.8-19.1,15.7-30.9,20.9-11.8,5.2-24.5,7.8-38.1,7.8h-141.9v-70.5h141.9c7.4,0,13.8-2.7,19.1-8,5.3-5.3,8-11.8,8-19.5v-16.3h-169v-184.5h169v-38.6h0Z"/>
    <path d="M540.2,448.6h269.4v70.5h-152.2v49h121.9v63.4h-121.9v45.4h152.2v70.5h-269.4v-70.5h46.6v-157.8h-46.6v-70.5h0Z"/>
    <path d="M1039.5,448.6c11.4,0,22.1,2.2,32.1,6.6s18.7,10.3,26.1,17.7c7.4,7.4,13.3,16.1,17.7,26.1s6.6,20.5,6.6,31.7v216.8h-164.6c-11.2,0-21.7-2.2-31.7-6.6-10-4.4-18.7-10.3-26.1-17.7-7.4-7.4-13.3-16.1-17.7-26.1-4.4-10-6.6-20.5-6.6-31.7v-146.2h-45.8v-70.5h210ZM1051.5,530.7c0-3.2-1.2-5.9-3.6-8.2-2.4-2.2-5.2-3.4-8.4-3.4h-93.6v146.2c0,3.2,1.1,5.9,3.4,8.2,2.2,2.3,5,3.4,8.2,3.4h94v-146.2Z"/>
    <path d="M1430,663.4c0,11.4.5,21.6,1.4,30.5.9,8.9,2,16.4,3.2,22.5,1.2,6.1,2.8,12.3,5,18.7l-.4-.4-65.3,25.5c-.5-1.3-2.1-6.3-4.8-14.9-2.7-8.6-4.9-20.9-6.8-36.9-14.6,12.2-31,21.8-49.2,28.7-18.2,6.9-37.5,10.4-58,10.4h-71.3v-228.3h-45.8v-70.5h116.4v228.3h8.8c13.3,0,25.8-2.5,37.5-7.6,11.7-5,21.9-12,30.7-20.7,8.8-8.8,15.7-19,20.7-30.7,5-11.7,7.6-24.2,7.6-37.5v-131.9h70.5v214.8h0Z"/>
    <path d="M1542,676.6c18.1-1.3,34.5-4.4,49.4-9.2,14.9-4.8,27.6-9.8,38.2-14.9s21.9-12,33.9-20.5l44.6,54.6c-.5.3-2.9,2-7.2,5.2-4.2,3.2-10.2,7-17.7,11.6s-16.7,9.4-27.5,14.5-22.8,10-36.3,14.3c-13.4,4.4-28,8-43.8,11-15.8,2.9-32.6,4.4-50.4,4.4h-53.8v-298.9h70.5v227.9h0Z"/>
  </g>
  <image width="800" height="800" transform="translate(147.7 619.9) scale(2)" xlink:href="../../../../../../../../../../Users/melissamaarek/Downloads/image-from-rawpixel-id-20191808-png.png"/>
</svg>