<?xml version="1.0" encoding="UTF-8"?>
<svg id="Layer_1" data-name="Layer 1" xmlns="http://www.w3.org/2000/svg" viewBox="0 0 1920 438.82">
  <defs>
    <style>
      .cls-1 {
        fill: #fff;
      }
    </style>
  </defs>
  <g>
    <path class="cls-1" d="M458,81.15h43.6c3.31,0,6.26,1.99,7.4,4.99l59.5,157.33c2.51,6.65,12.27,6.65,14.78,0l59.5-157.33c1.13-2.99,4.09-4.99,7.39-4.99h43.58c5.56,0,9.37,5.42,7.31,10.4l-95.38,231.25c-1.19,2.89-4.09,4.79-7.31,4.79h-45.45c-3.23,0-6.13-1.9-7.31-4.8l-94.91-231.24c-2.05-4.99,1.76-10.39,7.31-10.39"/>
    <path class="cls-1" d="M902.24,203.38c0-44.85-27.31-80.33-71.31-80.33s-71.81,35.49-71.81,80.83,27.31,80.83,71.81,80.83,71.31-35.98,71.31-81.33M701.98,203.88c0-75.41,52.09-130.61,128.96-130.61s128.45,54.71,128.45,130.11-52.09,131.11-128.45,131.11-128.96-55.2-128.96-130.61"/>
    <path class="cls-1" d="M1052.25,319.29l-95.55-227.69c-2.1-4.99,1.71-10.45,7.29-10.45h44.54c3.3,0,6.24,1.97,7.38,4.95l60.03,156.29c2.53,6.59,12.2,6.61,14.75.01l60.48-156.32c1.15-2.97,4.09-4.94,7.37-4.94h44.09c5.58,0,9.38,5.43,7.3,10.43l-139.32,334.74c-1.2,2.87-4.09,4.76-7.31,4.76h-44.62c-5.6,0-9.41-5.49-7.28-10.48l40.82-95.57c.79-1.84.8-3.9.02-5.74"/>
    <path class="cls-1" d="M1401.23,203.88c0-45.84-27.81-78.36-71.31-78.36s-69.28,34.5-69.28,78.86,26.29,78.36,69.28,78.36,71.31-32.53,71.31-78.86M1203.5,204.37c0-73.44,44-128.64,113.79-128.64,35.4,0,65.74,13.81,83.95,44.85-.82-11.26-.98-20.88-1-31.8-.01-4.2,3.52-7.63,7.87-7.63h40.9c4.34,0,7.87,3.4,7.87,7.59v230.76c0,4.19-3.53,7.59-7.87,7.59h-40.9c-4.35,0-7.88-3.42-7.87-7.62.03-11.05.17-20.19,1-32.31-18.72,31.55-51.58,45.84-86.48,45.84-68.27,0-111.26-56.68-111.26-128.64"/>
    <path class="cls-1" d="M1681.89,202.4c0-44.86-27.31-76.89-71.31-76.89-42.99.98-69.28,33.51-69.28,77.38s26.8,75.41,69.28,75.41,71.31-30.56,71.31-75.9M1681.42,302.37c.05-6-7.6-8.76-11.73-4.27-18.81,20.47-46.25,30.96-76.31,30.96-67.77,0-109.24-55.69-109.24-127.16s42.99-126.67,113.79-126.67c35.4,0,66.25,13.31,84.45,44.85-.82-10.83-1.31-20.34-1.47-31.21-.06-4.23,3.49-7.72,7.88-7.72h41.35c4.35,0,7.87,3.4,7.87,7.59v226.03c0,77.87-53.1,122.72-129.97,122.72-54.19,0-91.84-20.9-113.81-57.38-2.3-3.81-.76-8.73,3.35-10.67l36.01-17.01c3.67-1.74,8.06-.44,10.2,2.93,13.51,21.34,35.06,33.34,64.25,33.34,44,0,73.33-27.6,73.33-69.5,0-6.61,0-11.83.04-16.83"/>
    <path class="cls-1" d="M1784.81,81.15h40.89c4.36,0,7.88,3.42,7.88,7.63-.03,10.94-.18,20.63-1,32.29,14.66-29.08,42.98-42.39,72.82-42.39,2.73,0,5.17.15,7.7.43,3.97.45,6.93,3.76,6.9,7.62l-.37,36.81c-.04,4.23-3.67,7.63-8.06,7.51-4.57-.12-9.11-.12-14.26-.12-40.97,0-62.71,25.63-62.71,65.06v123.51c0,4.2-3.53,7.6-7.87,7.6h-41.91c-4.34,0-7.87-3.4-7.87-7.6V88.75c0-4.19,3.53-7.59,7.87-7.59"/>
  </g>
  <path class="cls-1" d="M194.12,140.22c8.01,10.43,21,13.51,34.98,15.97,34.82,6.14,87.66-.75,96.57,9.32,4.02,4.54-.48,9.21-4.38,11.82-10.05,6.75-57.44,9.5-83.57,16.86-41.15,11.6,44.4,90.22,36.87,112.9-5.93,17.89-90.8-111.84-96.5-52.8-9.61,99.46-8.84,166.68-17.1,181.58-.96,1.73-6.76,5.78-8.47-.21-4.81-20.01-4.65-101.67-9.44-149.91-2.63-26.38-3.8-45.84-15.25-58.05-6.37-6.78-18.85-4.61-26.5-1.96-16.06,5.57-25.69,12.7-42.19,18.47-7.2,2.51-48,20.82-55.53,19.44-2.27-.42-3.79-3.05-3.61-5.57.81-10.63,56.07-50.22,65.4-57.33,6.89-5.24,21.79-17.75,26.04-25.24,2.94-5.19,2.59-9.35-.01-14.35-5.25-10.03-16.53-20.02-23.5-28.74-8.08-10.13-32.81-36.65-36.66-48.14-1.45-4.32,2.92-6.18,6.8-5.03,17.57,5.24,58.3,42.77,76.22,47.44,7.78,2.03,12.81,2.94,19.85-1.88,13.71-9.39,22.45-50.41,27.82-68.54,5.52-18.61,15.43-46.04,23.43-53.91,3.21-3.15,6.85-3.53,8.57,1.27,4.18,11.72-6.77,65.44-7.91,81.13-1.21,16.58-2,42.34,8.06,55.46"/>
</svg>