<?xml version="1.0" encoding="UTF-8"?>
<svg id="Layer_1" data-name="Layer 1" xmlns="http://www.w3.org/2000/svg" viewBox="0 0 1920 479.65">
  <defs>
    <style>
      .cls-1 {
        fill: #d0d2d3;
      }

      .cls-2 {
        fill: #e5e6e7;
      }

      .cls-3 {
        fill: #de1116;
      }
    </style>
  </defs>
  <g>
    <rect class="cls-2" x="25.81" y="25.81" width="1868.37" height="428.02" rx="95.42" ry="95.42"/>
    <path class="cls-3" d="M1747.67,479.65H172.33C77.31,479.65,0,402.35,0,307.32v-134.99C0,77.31,77.31,0,172.33,0h1575.34c95.02,0,172.33,77.31,172.33,172.33v134.99c0,95.02-77.31,172.33-172.33,172.33ZM172.33,51.63c-66.56,0-120.7,54.15-120.7,120.7v134.99c0,66.56,54.15,120.7,120.7,120.7h1575.34c66.56,0,120.7-54.15,120.7-120.7v-134.99c0-66.56-54.15-120.7-120.7-120.7H172.33Z"/>
  </g>
  <g>
    <circle class="cls-3" cx="267.37" cy="239.83" r="99.97"/>
    <path class="cls-1" d="M267.37,340.31c-55.41,0-100.48-45.08-100.48-100.48s45.08-100.48,100.48-100.48,100.48,45.08,100.48,100.48-45.08,100.48-100.48,100.48ZM267.37,140.38c-54.84,0-99.45,44.61-99.45,99.45s44.61,99.45,99.45,99.45,99.45-44.61,99.45-99.45-44.61-99.45-99.45-99.45Z"/>
  </g>
  <g>
    <circle class="cls-3" cx="1650.41" cy="239.83" r="99.97"/>
    <path class="cls-1" d="M1650.41,340.31c-55.41,0-100.48-45.08-100.48-100.48s45.08-100.48,100.48-100.48,100.48,45.08,100.48,100.48-45.08,100.48-100.48,100.48ZM1650.41,140.38c-54.84,0-99.45,44.61-99.45,99.45s44.61,99.45,99.45,99.45,99.45-44.61,99.45-99.45-44.61-99.45-99.45-99.45Z"/>
  </g>
  <g>
    <path class="cls-3" d="M622.41,194.52l-.61.45-24.5,120.7h-60.2l24.66-121.16h-45.38l6.66-43.55h75.33c9.78.2,15.63-1.24,17.55-10.52l3.33-13.24h61.11l-6.2,37.05h.3l-.3.15c-3.93,20.07-21.13,30.1-51.58,30.1h-.15Z"/>
    <path class="cls-3" d="M752.8,149.75h75.78c30.25,0,43.36,9.98,39.33,29.95l-21.02,105.73c-4.14,20.17-21.43,30.25-51.88,30.25h-75.33c-30.05-.1-43.16-9.98-39.33-29.65l21.18-106.49c3.93-19.86,21.02-29.8,51.28-29.8ZM762.18,180l-21.18,105.88h45.23l21.33-105.88h-45.38Z"/>
    <path class="cls-3" d="M907.38,134.78h59.75l-12.25,60.65,43.41-45.53h61.11l-72.3,80.17,53.24,116.17h-58.08l-41.14-79.86-9.83,49.46h-60.5l36.6-181.06Z"/>
    <path class="cls-3" d="M1116.12,315.68h-74.87l5.9-30.71,22.08.3,21.48-29.04-28.44-106.03h59.9l7.87,59.75,37.21-60.35h61.26l-112.39,166.08Z"/>
    <path class="cls-3" d="M1287.8,149.75h75.78c30.25,0,43.36,9.98,39.33,29.95l-21.02,105.73c-4.14,20.17-21.43,30.25-51.88,30.25h-75.33c-30.05-.1-43.16-9.98-39.33-29.65l21.18-106.49c3.93-19.86,21.02-29.8,51.28-29.8ZM1297.18,180l-21.18,105.88h45.23l21.33-105.88h-45.38Z"/>
  </g>
</svg>