<?xml version="1.0" encoding="UTF-8"?>
<svg id="Layer_1" data-name="Layer 1" xmlns="http://www.w3.org/2000/svg" viewBox="0 0 1920 475.76">
  <defs>
    <style>
      .cls-1 {
        fill: #fff;
      }
    </style>
  </defs>
  <path class="cls-1" d="M10.29,10.3h56.95c4.32,0,8.18,2.61,9.66,6.51l77.71,205.51c3.28,8.69,16.02,8.69,19.31,0L251.65,16.81c1.47-3.91,5.34-6.51,9.65-6.51h56.92c7.27,0,12.24,7.08,9.55,13.58l-124.59,302.06c-1.56,3.77-5.35,6.25-9.55,6.25h-59.37c-4.22,0-8.01-2.49-9.55-6.27L.73,23.87c-2.68-6.51,2.3-13.57,9.55-13.57"/>
  <path class="cls-1" d="M590.57,169.95c0-58.58-35.67-104.93-93.14-104.93s-93.8,46.35-93.8,105.58,35.67,105.58,93.8,105.58,93.14-47,93.14-106.23M328.98,170.6C328.98,72.1,397.03,0,497.43,0s167.79,71.46,167.79,169.95-68.04,171.25-167.79,171.25-168.45-72.1-168.45-170.6"/>
  <path class="cls-1" d="M786.51,321.36L661.7,23.94c-2.74-6.52,2.23-13.64,9.53-13.64h58.18c4.31,0,8.15,2.58,9.65,6.47l78.41,204.15c3.3,8.61,15.93,8.63,19.26.02l79-204.19c1.5-3.88,5.34-6.45,9.63-6.45h57.59c7.28,0,12.25,7.09,9.54,13.62l-181.99,437.25c-1.57,3.75-5.35,6.22-9.55,6.22h-58.28c-7.32,0-12.3-7.17-9.51-13.69l53.32-124.84c1.03-2.4,1.04-5.09.03-7.5"/>
  <path class="cls-1" d="M1242.37,170.6c0-59.87-36.33-102.36-93.14-102.36s-90.5,45.06-90.5,103,34.35,102.36,90.5,102.36,93.14-42.49,93.14-103M984.08,171.24c0-95.93,57.47-168.03,148.63-168.03,46.24,0,85.87,18.03,109.65,58.59-1.08-14.7-1.28-27.27-1.31-41.54-.02-5.48,4.6-9.96,10.28-9.96h53.42c5.67,0,10.28,4.44,10.28,9.92v301.42c0,5.47-4.61,9.92-10.28,9.92h-53.42c-5.68,0-10.3-4.47-10.28-9.95.04-14.43.23-26.37,1.31-42.2-24.45,41.21-67.38,59.88-112.96,59.88-89.18,0-145.33-74.04-145.33-168.03"/>
  <path class="cls-1" d="M1608.97,168.68c0-58.6-35.67-100.43-93.14-100.43-56.15,1.28-90.5,43.78-90.5,101.08s35.01,98.5,90.5,98.5,93.14-39.92,93.14-99.14M1608.37,299.26c.06-7.84-9.93-11.44-15.32-5.57-24.57,26.74-60.41,40.44-99.67,40.44-88.52,0-142.69-72.75-142.69-166.1S1406.84,2.57,1499.32,2.57c46.24,0,86.54,17.39,110.32,58.59-1.08-14.14-1.71-26.57-1.92-40.77-.07-5.53,4.56-10.09,10.29-10.09h54.02c5.68,0,10.28,4.44,10.28,9.92v295.24c0,101.72-69.36,160.31-169.77,160.31-70.78,0-119.97-27.3-148.66-74.96-3-4.98-.99-11.4,4.38-13.93l47.03-22.22c4.8-2.27,10.53-.57,13.32,3.83,17.65,27.88,45.8,43.55,83.93,43.55,57.47,0,95.78-36.06,95.78-90.78,0-8.63,0-15.45.05-21.99"/>
  <path class="cls-1" d="M1743.42,10.3h53.41c5.69,0,10.3,4.47,10.29,9.96-.04,14.29-.24,26.95-1.31,42.18,19.15-37.98,56.14-55.37,95.12-55.37,3.56,0,6.75.19,10.06.56,5.18.59,9.06,4.91,9.01,9.95l-.48,48.08c-.05,5.53-4.8,9.97-10.53,9.81-5.97-.16-11.9-.16-18.63-.16-53.51,0-81.91,33.48-81.91,84.98v161.33c0,5.48-4.61,9.93-10.28,9.93h-54.75c-5.67,0-10.28-4.44-10.28-9.93V20.22c0-5.47,4.61-9.92,10.28-9.92"/>
</svg>