<?xml version="1.0" encoding="UTF-8"?>
<svg id="Layer_1" xmlns="http://www.w3.org/2000/svg" xmlns:xlink="http://www.w3.org/1999/xlink" version="1.1" viewBox="0 0 1920 1920">
  <!-- Generator: Adobe Illustrator 29.5.1, SVG Export Plug-In . SVG Version: 2.1.0 Build 141)  -->
  <defs>
    <style>
      .st0 {
        isolation: isolate;
      }

      .st1 {
        fill: #060072;
      }

      .st2 {
        fill: #e1e1e1;
      }

      .st3 {
        fill: #95ccd7;
      }
    </style>
  </defs>
  <g>
    <circle class="st3" cx="960" cy="960" r="936.8"/>
    <path class="st1" d="M960,1920c-129.6,0-255.3-25.4-373.7-75.4-114.3-48.3-217-117.6-305.1-205.7s-157.4-190.8-205.7-305.1C25.4,1215.3,0,1089.6,0,960s25.4-255.3,75.4-373.7c48.3-114.3,117.6-217,205.7-305.1,88.2-88.2,190.8-157.4,305.1-205.7C704.7,25.4,830.4,0,960,0s255.3,25.4,373.7,75.4c114.3,48.3,217,117.6,305.1,205.7s157.4,190.8,205.7,305.1c50.1,118.4,75.4,244.1,75.4,373.7s-25.4,255.3-75.4,373.7c-48.3,114.3-117.6,217-205.7,305.1s-190.8,157.4-305.1,205.7c-118.4,50.1-244.1,75.4-373.7,75.4h0v.2ZM960,46.4c-123.3,0-243,24.2-355.6,71.8-108.8,46-206.5,111.9-290.4,195.8s-149.8,181.6-195.8,290.4c-47.6,112.6-71.8,232.3-71.8,355.6s24.2,243,71.8,355.6c46,108.8,111.9,206.5,195.8,290.4s181.6,149.8,290.4,195.8c112.6,47.6,232.3,71.8,355.6,71.8s243-24.2,355.6-71.8c108.8-46,206.5-111.9,290.4-195.8s149.8-181.6,195.8-290.4c47.6-112.6,71.8-232.3,71.8-355.6s-24.2-243-71.8-355.6c-46-108.8-111.9-206.5-195.8-290.4s-181.6-149.8-290.4-195.8c-112.6-47.6-232.3-71.8-355.6-71.8h0Z"/>
  </g>
  <g>
    <path class="st1" d="M1597.3,632.3l-25.4-49.4,2.5-1.3c1,1.6,1.8,3,2.6,4.1.8,1.2,1.6,2,2.5,2.5s1.9.7,3.1.5,2.7-.8,4.7-1.8l110-56.5c3.6-1.8,5.4-3.7,5.4-5.7s-.8-4.5-2.4-7.7l2.5-1.3,48.2,93.8-29.8,15.5-1.4-2.7c6.1-4.4,9.4-9,9.8-13.6.4-4.7-1-10.2-4.4-16.7l-12.8-24.9c-1.2-2.3-2.3-3.8-3.2-4.6-1-.8-2.7-.5-5.3.8l-38.7,19.9,11.7,22.8c2.8,5.5,5.9,8.8,9.3,10s8,.7,13.6-1.5l1.4,2.7-43.2,22.2-1.4-2.7c5.2-3.3,8.4-6.8,9.6-10.3s.3-8.1-2.6-13.7l-11.7-22.8-50.3,25.9c-2,1-3.5,2.1-4.2,3.3-.8,1.1-1.2,2.3-1.1,3.5s.4,2.5,1.1,3.9,1.4,3,2.3,4.6l-2.5,1.3h.1Z"/>
    <path class="st1" d="M1641.4,736.4l-18.8-51.5,2.6-1c.8,1.7,1.5,3.2,2.1,4.5s1.4,2.3,2.2,3c.9.7,1.9,1,3.1,1s2.8-.4,4.9-1.1l116.2-42.5c2-.7,3.5-1.6,4.5-2.4,1-.9,1.5-1.9,1.7-2.9s0-2.3-.3-3.7c-.4-1.4-.9-3-1.5-4.7l2.6-1,18.8,51.5-2.6,1c-.8-1.7-1.5-3.2-2.1-4.5s-1.4-2.3-2.2-3-1.9-1-3.1-1-2.8.3-4.9,1.1l-116.2,42.5c-2,.7-3.5,1.5-4.5,2.4s-1.5,1.9-1.7,2.9,0,2.3.3,3.7c.4,1.4.9,3,1.5,4.7l-2.6,1h0Z"/>
    <path class="st1" d="M1666.8,782.1c-3.9.8-6.2,2.2-6.7,4.2-.5,1.9-.5,4.6.3,8l-2.7.6-11.1-52.2,2.7-.6c.9,3.5,1.9,6,3.1,7.5s3.8,1.8,7.9,1l121-25.6c3.8-.8,6-2.2,6.7-4.3.7-2,.6-4.7-.2-7.9l2.7-.6,12.3,58.3c1.4,6.5,2.3,13.1,2.8,20.1.5,6.9,0,13.4-1.6,19.5s-4.5,11.4-8.7,15.9c-4.2,4.6-10.3,7.7-18.3,9.4-5.1,1.1-9.8,1-14.1-.2s-8.4-3.2-12-5.9c-3.7-2.7-6.9-6.1-9.8-10.1s-5.3-8.2-7.3-12.6c-2.1,5.1-5.1,10.1-8.9,14.7-3.8,4.7-7.9,9.1-12.2,13.3-4.4,4.2-8.8,8.1-13.2,11.8-4.4,3.7-8.4,7.1-11.9,10.2-3.5,3.1-6.3,5.9-8.3,8.5-2,2.5-2.8,4.8-2.4,6.8l-2.7.6-8.1-38.3c11.4-7.2,21.6-15.2,30.8-23.9s17.2-18.8,24.1-30.4l-2-8.6-52,11h0l-.2-.2ZM1734.7,774.5c1,4.9,2.3,9.4,3.8,13.4s3.5,7.3,6.1,9.9c2.5,2.6,5.7,4.4,9.5,5.3,3.8,1,8.5.8,14.1-.3,8.8-1.9,14.8-5.7,17.7-11.3,3-5.7,3.6-12.7,1.8-21.2-.6-2.8-1.4-5.3-2.4-7.5s-2.9-3.7-5.9-4.6l-46.1,9.8,1.4,6.5h0Z"/>
    <path class="st1" d="M1674.7,878.5h2.8c.2,1.8.4,3.4.6,4.6s.6,2.3,1.2,3.2c.6.8,1.5,1.5,2.6,1.9s2.8.6,5,.5l123.6-3.4c4,0,6.5-1,7.3-2.8.9-1.8,1.3-4.4,1.2-8h2.8l3,108.7-33.5,1.1v-3c7.3-1.3,12.2-4,14.7-8,2.4-4,3.5-9.7,3.3-17l-.8-31.4c0-2.6-.4-4.4-.9-5.6s-2.2-1.7-5.1-1.6l-43.2,1.2.8,28.6c.2,6.2,1.5,10.4,4.1,12.8,2.6,2.4,6.9,3.8,12.9,4.4v3l-48.5,1.3v-3c5.9-.7,10.2-2.4,12.9-4.9,2.7-2.5,3.9-6.9,3.7-13.2l-.8-28.6-47.3,1.3c-3.2,0-5,1.1-5.4,3.2-.4,2-.6,4.3-.6,6.9l.8,28.6c.2,7.7,2,14,5.2,18.8,3.3,4.8,8.6,8.5,15.8,11.2v3.2l-35.1-4-3-110.1h0Z"/>
    <path class="st1" d="M1794.1,1129.3c4.1.7,7,.2,8.8-1.2,1.8-1.5,2.9-4.1,3.3-8l2.8.4-6.2,38.9-2.8-.4c.2-2,.2-3.6,0-4.9s-.6-2.3-1.2-3.1-1.6-1.5-2.8-2-2.9-.9-5-1.2l-133.8-21.2,3.2-20c.7-.5,1.1-.8,1.4-.9l123.7-59.3-96.7-15.3c-2.4-.4-4.4-.6-5.9-.5-1.5,0-2.8.4-3.8,1.1s-1.7,1.8-2.2,3.2c-.5,1.4-1,3.3-1.3,5.6l-2.6-.4,6.4-40.4,2.6.4c-.2,2.3-.3,4.1,0,5.5,0,1.4.6,2.6,1.3,3.5.7.9,1.8,1.6,3.2,2.1,1.4.5,3.3,1,5.7,1.3l117.1,18.5c3,.5,5.7,0,8.3-1.5,2.6-1.5,4-3.8,4.4-6.9l2.8.4-6.6,41.4c-18.9,8.2-37.4,16.7-55.6,25.4-18.2,8.7-36.8,17.2-55.6,25.4l87.5,13.8h0l-.3.3Z"/>
    <path class="st1" d="M1651.8,1267.9l-35.2-16,39.2-109.6,12.8,4.6,85.1,113.9,14-39.8c1.4-3.9,2.4-7.4,2.9-10.4s.6-5.8,0-8.3c-.5-2.6-1.8-5-3.7-7.4-1.9-2.4-4.6-4.8-8.1-7.3l1.2-3.2,31.9,14.2-36.6,102.1-12.3-4.4-85.3-114-15.7,43.7c-1.6,4.5-2.7,8.5-3.3,12.1-.6,3.6-.5,6.9.2,9.9.8,3,2.2,5.9,4.5,8.6s5.4,5.5,9.4,8.3l-1.1,3h0Z"/>
    <path class="st1" d="M1613.3,1261l2.4,1.4c-.8,1.7-1.4,3.1-2,4.3-.5,1.2-.7,2.3-.7,3.3s.5,2,1.3,3,2.1,1.9,4,3l107.6,61.1c3.5,2,6.1,2.5,7.7,1.4,1.7-1,3.4-3.1,5.2-6.2l2.4,1.4-53.8,94.6-29.3-16.4,1.5-2.6c7.1,2.7,12.6,2.9,16.8.7,4.1-2.2,8-6.5,11.6-12.8l15.5-27.3c1.3-2.2,2-4,2.1-5.2s-1.1-2.6-3.6-4l-37.6-21.3-14.1,24.9c-3,5.4-4.1,9.7-3.1,13.1s3.9,6.8,8.8,10.4l-1.5,2.6-42.3-24,1.5-2.6c5.5,2.5,10.1,3.3,13.6,2.6,3.6-.8,6.9-3.9,10-9.4l14.1-24.9-41.2-23.4c-2.7-1.6-4.8-1.6-6.3,0-1.4,1.5-2.8,3.4-4.1,5.6l-14.1,24.9c-3.8,6.7-5.6,13-5.2,18.8.3,5.8,2.9,11.7,7.7,17.8l-1.6,2.8-28-21.6,54.4-95.8h0l.3-.2Z"/>
    <path class="st1" d="M1544.1,1496.8c-4.5.2-8.4-1.2-11.8-4.3-3.3-3-5.1-6.7-5.4-11.2s1.1-8.5,4.2-11.9,6.8-5.2,11.3-5.4c4.5-.2,8.4,1.2,11.8,4.3,3.4,3.1,5.2,6.8,5.4,11.3.2,4.4-1.2,8.4-4.3,11.8-3.1,3.4-6.8,5.2-11.3,5.4h.1Z"/>
    <path class="st1" d="M1381.9,1539.2l44.5-33.2,1.7,2.2c-1.4,1.2-2.6,2.3-3.6,3.2-1,.9-1.7,1.9-2,2.8-.3,1-.3,2,0,3.2.4,1.1,1.2,2.6,2.5,4.3l73.9,99.2c2.4,3.2,4.6,4.7,6.5,4.4,1.9-.3,4.3-1.5,7.2-3.6l1.7,2.2-84.5,63-20.2-26.8,2.4-1.8c5.4,5.3,10.4,7.8,15.1,7.4,4.7-.3,9.9-2.7,15.8-7.1l22.4-16.7c2.1-1.5,3.4-2.9,4-3.9.6-1.1,0-2.8-1.6-5.1l-26-34.8-20.5,15.3c-4.9,3.7-7.7,7.3-8.3,10.9-.6,3.6.7,8,3.7,13.2l-2.4,1.8-29-39,2.4-1.8c4.1,4.6,8,7.2,11.7,7.8,3.7.6,8-1,13.1-4.8l20.5-15.3-33.8-45.4c-1.4-1.8-2.7-3.1-3.9-3.7s-2.4-.8-3.6-.5c-1.2.2-2.4.8-3.7,1.7-1.3.9-2.7,1.9-4.2,3l-1.7-2.2h0Z"/>
    <path class="st1" d="M1250.3,1657.6l-12-35.4,97.2-48.9,1.2,2.5c-3.2,1.9-5.3,3.6-6.4,5s-.7,4,1.2,7.7l55.6,110.5c1.8,3.6,3.6,5.4,5.5,5.4s4.4-.7,7.7-2.2l1.3,2.5-48.6,24.4-1.3-2.5c1.7-1,3.2-1.9,4.4-2.7,1.2-.8,2.2-1.6,2.8-2.5.7-.9,1-2,.9-3.2,0-1.2-.6-2.9-1.7-4.9l-51.3-102c-1.4-2.8-3.1-4-5.2-3.6s-4.2,1.3-6.5,2.4l-24.2,12.2c-4.2,2.1-7.6,4.2-10,6.4-2.5,2.1-4.3,4.4-5.5,7-1.2,2.5-2,5.4-2.2,8.7s-.3,7.2,0,11.6l-3.1,1.5h.2Z"/>
    <path class="st1" d="M1102.5,1708.7c.8-9.9,3.4-19,7.8-27.3s10.5-15.5,18.3-21.7c7.8-6.1,17.2-10.7,28.1-13.8,11.1-3.1,21.5-4.1,31.3-3s18.8,4.1,26.8,8.9c8.1,4.8,15,11.3,20.9,19.4,5.8,8.1,10.3,17.6,13.3,28.3,3.1,10.9,4.2,21.3,3.5,31.3-.7,9.9-3.2,19.1-7.6,27.4s-10.5,15.5-18.3,21.6-17.3,10.7-28.5,13.8c-11.1,3.1-21.5,4.1-31.4,2.9s-18.8-4.2-26.8-8.9c-8-4.8-14.9-11.2-20.8-19.4-5.9-8.2-10.3-17.7-13.3-28.4s-4.1-21.1-3.3-31h0ZM1146.1,1749.5c3.1,6.7,6.9,12.5,11.4,17.6,4.6,5.1,9.8,8.8,15.9,11.4,6.1,2.5,12.9,2.7,20.5.6,7.7-2.2,13.5-5.9,17.4-11.2,3.9-5.3,6.4-11.3,7.7-18,1.2-6.7,1.4-13.7.6-20.9-.8-7.3-2.1-14-3.8-20-1.8-6.2-4.1-12.6-7.2-19.2s-6.8-12.5-11.4-17.6-9.9-8.9-15.9-11.4c-6.1-2.5-12.9-2.6-20.7-.4-7.6,2.1-13.3,5.8-17.2,11.1-3.9,5.3-6.4,11.3-7.7,18-1.2,6.8-1.4,13.8-.6,21.1.8,7.3,2.1,14,3.8,20,1.7,6.1,4.1,12.4,7.2,19.1h0v-.2Z"/>
    <path class="st1" d="M1038.6,1684.6c-.3-4-1.3-6.4-3.2-7.2-1.8-.8-4.5-1.1-7.9-.8l-.2-2.8,53.2-3.7.2,2.8c-3.6.4-6.2,1.1-7.8,2.1-1.7,1-2.3,3.5-2.1,7.7l8.6,123.4c.3,3.9,1.4,6.3,3.3,7.2,1.9.9,4.5,1.2,7.8.9l.2,2.8-59.4,4.1c-6.6.5-13.3.5-20.3,0-6.9-.5-13.3-1.9-19.1-4.3s-10.6-6-14.6-10.8-6.2-11.3-6.8-19.5c-.4-5.2.4-9.8,2.2-13.9,1.8-4.2,4.3-7.8,7.5-11.1,3.2-3.2,7-6,11.4-8.3s8.9-4.1,13.5-5.5c-4.8-2.8-9.2-6.4-13.4-10.8-4.1-4.4-7.9-9-11.4-14-3.5-4.9-6.8-9.8-9.9-14.7-3.1-4.9-5.9-9.3-8.5-13.2-2.6-3.9-5-7.1-7.2-9.4-2.2-2.4-4.4-3.5-6.4-3.3l-.2-2.8,39-2.7c5.6,12.3,12.1,23.5,19.4,33.8,7.3,10.3,16.2,19.6,26.7,28.1l8.8-.8-3.7-53h0l.3-.3ZM1036.6,1752.8c-5,.3-9.6,1-13.8,1.9s-7.7,2.5-10.7,4.6-5.2,5-6.6,8.7c-1.5,3.6-2,8.3-1.6,14,.6,9,3.5,15.4,8.8,19.1,5.2,3.7,12.1,5.3,20.7,4.7,2.9-.2,5.5-.6,7.8-1.3,2.3-.7,4.1-2.4,5.3-5.2l-3.3-47-6.7.5h0Z"/>
    <path class="st1" d="M942,1679l-.3,2.8h-4.8c-1.3,0-2.4.2-3.3.7-.9.5-1.7,1.2-2.2,2.3-.5,1.1-1,2.7-1.2,4.8l-13.7,122.9c-.4,4,0,6.5,1.8,7.7s4.2,1.9,7.8,2.3l-.3,2.8-108.2-12,3.5-33.4,3,.3c.3,7.5,2.3,12.8,5.9,15.7,3.6,2.9,9.1,4.8,16.4,5.6l31.2,3.5c2.6.3,4.5.2,5.6,0,1.2-.4,2-2,2.3-4.8l4.8-43-28.4-3.2c-6.1-.7-10.5,0-13.2,2.3-2.7,2.2-4.7,6.3-6.1,12.2l-3-.3,5.4-48.3,3,.3c0,6.1.9,10.6,3,13.5s6.3,4.8,12.6,5.5l28.4,3.2,5.2-47c.3-3.1-.4-5.1-2.4-5.8-1.9-.7-4.2-1.2-6.8-1.5l-28.4-3.2c-7.7-.8-14.1,0-19.3,2.6s-9.6,7.3-13.2,14.1l-3.2-.4,8.8-34.3,109.5,12.2h-.2Z"/>
    <path class="st1" d="M677.2,1762.8c-1.2,4-1.2,6.9,0,8.9,1.2,1.9,3.7,3.4,7.4,4.4l-.8,2.7-37.7-11.4.8-2.7c2,.4,3.6.7,4.8.7s2.4-.3,3.3-.8c.9-.6,1.7-1.4,2.3-2.6s1.3-2.8,1.9-4.8l39.4-129.7,19.3,5.9c.4.7.6,1.2.7,1.6l41.7,130.7,28.4-93.7c.7-2.3,1.2-4.3,1.3-5.8.2-1.5,0-2.8-.6-3.9s-1.5-2-2.9-2.7-3.1-1.4-5.3-2.1l.8-2.5,39.1,11.9-.8,2.5c-2.2-.5-4.1-.8-5.5-.9-1.4,0-2.6.2-3.6.8-1,.6-1.8,1.5-2.5,2.8s-1.4,3.1-2.1,5.4l-34.4,113.4c-.9,2.9-.8,5.7.4,8.4,1.1,2.7,3.2,4.5,6.3,5.3l-.8,2.7-40.1-12.2c-5.5-19.8-11.4-39.3-17.5-58.6-6.1-19.2-12-38.8-17.5-58.6l-25.7,84.8h-.1Z"/>
    <path class="st1" d="M562.1,1578.2c9.6-2.4,18.6-3.1,27.1-2s17.2,3.9,25.9,8.5c10.4,5.5,19.1,12,26,19.6,7,7.5,12,15.8,15.1,24.7,3.1,9,4.2,18.4,3.1,28.5-1,10-4.4,20.3-10,31-5.5,10.3-12.1,18.8-19.9,25.5s-16.3,11.5-25.5,14.3-18.9,3.6-29.2,2.4c-10.2-1.2-20.5-4.6-30.7-10-7.2-3.8-13.8-8.8-19.7-14.8-.3-.3-1-1.1-2.2-2.3-1.2-1.2-2.4-2.4-3.8-3.7-1.3-1.3-2.6-2.5-3.7-3.6-1.1-1.1-1.8-1.7-2.1-1.8-1.5-.6-2.8-.7-4-.3-1.2.4-2.3,1.2-3.2,2.3l-2.9-1.5,18-34.3c.2,0,1.3,0,3.3.6-.7,9.3,1.2,18.1,5.8,26.1s11.1,14.3,19.5,18.8c7.6,4,14.8,5.8,21.6,5.4s13.1-2.4,19-5.9c5.8-3.5,11.1-8.1,15.8-13.8,4.7-5.7,8.8-11.8,12.2-18.2,3.6-6.7,6.2-13.7,7.8-21.1,1.6-7.3,2-14.6,1.3-21.6-.8-7.1-2.8-13.8-6-20.1-3.2-6.3-7.9-11.9-14.2-16.7-7.4-5.7-15-9.4-22.9-11.2s-15.7-1.6-23.5.4l1.6-5.2h.4Z"/>
    <path class="st1" d="M564.3,1560.8l-1.7,2.2c-1.5-1-2.9-1.9-4-2.6s-2.2-1.1-3.2-1.2-2.1.2-3.1.8c-1,.6-2.2,1.8-3.6,3.5l-76.7,97.1c-2.5,3.2-3.4,5.6-2.6,7.4s2.6,3.8,5.4,6l-1.7,2.2-85.4-67.5,20.6-26.5,2.4,1.9c-3.7,6.6-4.8,12.1-3.3,16.5s5.2,8.9,10.9,13.4l24.6,19.5c2,1.6,3.6,2.6,4.9,2.9,1.2.3,2.7-.7,4.5-2.9l26.8-33.9-22.5-17.7c-4.8-3.8-9-5.5-12.5-5.1-3.5.5-7.4,2.8-11.6,7.1l-2.4-1.9,30.1-38.2,2.4,1.9c-3.3,5.1-4.8,9.4-4.6,13.1.2,3.7,2.8,7.4,7.8,11.3l22.5,17.7,29.3-37.1c2-2.5,2.3-4.5,1-6.2-1.3-1.6-2.9-3.3-4.9-4.9l-22.5-17.7c-6.1-4.8-12-7.5-17.8-8s-12,1.1-18.7,4.9l-2.5-2,25.6-24.4,86.4,68.3h.1Z"/>
    <path class="st1" d="M341.6,1456.7c.5-4.4,2.4-8.1,6-11,3.4-2.8,7.4-4,11.9-3.6s8.2,2.4,11.1,5.9c2.9,3.6,4.1,7.6,3.7,12s-2.4,8.1-6,11-7.5,4.1-12,3.7c-4.4-.4-8.1-2.4-11-6s-4.1-7.6-3.7-12h0Z"/>
    <path class="st1" d="M323.7,1289.7l25.5,49.3-2.5,1.3c-1-1.6-1.9-2.9-2.6-4.1-.8-1.1-1.6-2-2.5-2.5s-2-.7-3.1-.4c-1.2.2-2.7.8-4.6,1.8l-109.8,56.9c-3.6,1.8-5.4,3.7-5.4,5.7s.8,4.5,2.4,7.7l-2.5,1.3-48.4-93.6,29.7-15.6,1.4,2.7c-6.1,4.4-9.4,9-9.8,13.7-.4,4.7,1.1,10.2,4.4,16.7l12.9,24.8c1.2,2.3,2.3,3.8,3.2,4.6,1,.8,2.7.5,5.3-.8l38.6-20-11.8-22.7c-2.8-5.5-6-8.8-9.4-9.9s-8-.6-13.6,1.5l-1.4-2.7,43.2-22.3,1.4,2.7c-5.2,3.3-8.4,6.8-9.6,10.3-1.2,3.5-.3,8.1,2.6,13.7l11.8,22.7,50.2-26c2-1.1,3.5-2.2,4.2-3.3.8-1.1,1.1-2.3,1.1-3.5s-.4-2.5-1.1-3.9-1.4-3-2.3-4.6l2.5-1.3h0v-.2Z"/>
    <path class="st1" d="M279.3,1185.7l19,51.5-2.6,1c-.8-1.7-1.5-3.2-2.1-4.5s-1.4-2.3-2.2-3c-.9-.7-1.9-1-3.1-1s-2.9.4-4.9,1.1l-116,42.8c-2,.7-3.5,1.6-4.5,2.5s-1.5,1.9-1.7,2.9c-.1,1.1,0,2.3.3,3.7s.9,3,1.5,4.7l-2.6,1-19-51.5,2.6-1c.8,1.7,1.5,3.2,2.1,4.5s1.4,2.3,2.2,3c.9.7,1.9,1,3.1,1s2.9-.4,4.9-1.1l116-42.8c2-.8,3.5-1.6,4.5-2.5s1.5-1.9,1.7-2.9,0-2.3-.3-3.7-.9-3-1.5-4.7l2.6-1h0Z"/>
    <path class="st1" d="M253.7,1140c3.9-.8,6.2-2.2,6.7-4.2.5-1.9.4-4.6-.3-8l2.7-.6,11.2,52.2-2.7.6c-.9-3.5-1.9-6-3.1-7.5s-3.8-1.8-7.9-.9l-120.9,26c-3.8.8-6,2.2-6.7,4.3s-.6,4.7.3,7.9l-2.7.6-12.5-58.3c-1.4-6.4-2.3-13.1-2.9-20.1-.5-6.9,0-13.4,1.5-19.5,1.6-6.1,4.5-11.4,8.7-15.9,4.2-4.6,10.3-7.7,18.3-9.4,5.1-1.1,9.8-1,14.1.2,4.4,1.2,8.4,3.2,12,5.9,3.7,2.7,7,6.1,9.9,10.1s5.4,8.2,7.3,12.6c2.1-5.2,5.1-10.1,8.8-14.8,3.8-4.7,7.8-9.1,12.2-13.3,4.4-4.2,8.8-8.1,13.2-11.8,4.4-3.7,8.4-7.2,11.9-10.2,3.5-3.1,6.3-5.9,8.3-8.5s2.8-4.8,2.4-6.8l2.7-.6,8.2,38.3c-11.3,7.3-21.6,15.3-30.7,24-9.1,8.7-17.1,18.9-24,30.5l2.1,8.6,51.9-11.2h0v-.2ZM185.8,1147.7c-1.1-4.9-2.3-9.4-3.9-13.4s-3.6-7.3-6.1-9.9-5.7-4.4-9.5-5.3-8.5-.8-14.1.4c-8.8,1.9-14.7,5.7-17.7,11.4-3,5.7-3.5,12.8-1.7,21.2.6,2.8,1.4,5.3,2.4,7.5s3,3.7,5.9,4.6l46.1-9.9-1.4-6.5h0Z"/>
    <path class="st1" d="M245.6,1043.6h-2.8c-.2-1.8-.4-3.4-.6-4.6-.2-1.3-.6-2.3-1.2-3.2-.6-.8-1.5-1.5-2.6-1.9-1.2-.4-2.8-.6-5-.5l-123.6,3.7c-4,0-6.5,1.1-7.3,2.8-.9,1.8-1.3,4.4-1.2,8h-2.8l-3.3-108.7,33.5-1.2v3c-7.3,1.4-12.2,4.1-14.6,8.1s-3.5,9.7-3.2,17l.9,31.4c0,2.6.4,4.4.9,5.6.5,1.1,2.2,1.7,5.1,1.6l43.2-1.3-.9-28.6c-.2-6.2-1.6-10.4-4.1-12.8-2.6-2.4-6.9-3.8-12.9-4.3v-3l48.5-1.5v3c-5.9.8-10.2,2.4-12.9,4.9-2.6,2.5-3.9,6.9-3.7,13.2l.9,28.6,47.3-1.4c3.1,0,4.9-1.2,5.4-3.2.4-2,.6-4.3.6-6.9l-.9-28.6c-.2-7.7-2-14-5.3-18.8s-8.6-8.5-15.8-11.1v-3.2c-.1,0,35.1,3.9,35.1,3.9l3.3,110.1h0Z"/>
    <path class="st1" d="M125.4,793.2c-4.1-.6-7-.2-8.8,1.2s-2.8,4.1-3.3,8l-2.8-.4,6-38.9,2.8.4c-.2,2-.2,3.6,0,4.9.2,1.3.6,2.3,1.2,3.1.7.8,1.6,1.5,2.8,2,1.2.5,2.9.9,5,1.2l133.9,20.8-3.1,20c-.7.5-1.1.8-1.4.9l-123.5,59.6,96.7,15c2.4.4,4.4.5,5.9.5s2.8-.4,3.8-1.2,1.7-1.8,2.2-3.2c.5-1.5.9-3.3,1.3-5.6l2.6.4-6.3,40.4-2.6-.4c.2-2.3.2-4.1.1-5.5-.1-1.4-.6-2.6-1.3-3.5s-1.8-1.6-3.1-2.1-3.3-.9-5.7-1.3l-117.1-18.2c-3-.5-5.7,0-8.3,1.5s-4,3.8-4.3,7l-2.8-.4,6.4-41.5c18.8-8.2,37.4-16.8,55.6-25.6,18.2-8.8,36.7-17.3,55.6-25.6l-87.6-13.6h.1Z"/>
    <path class="st1" d="M267.3,654.2l35.2,15.9-38.9,109.7-12.8-4.5-85.4-113.6-13.9,39.8c-1.4,3.9-2.4,7.4-2.9,10.4s-.5,5.8,0,8.3,1.8,5,3.7,7.3,4.6,4.8,8.2,7.2l-1.1,3.2-32-14.1,36.2-102.2,12.4,4.4,85.7,113.7,15.5-43.8c1.6-4.5,2.7-8.5,3.3-12.1s.5-6.9-.2-9.9-2.3-5.9-4.5-8.6-5.4-5.4-9.4-8.2l1.1-3h-.2Z"/>
    <path class="st1" d="M305.8,661l-2.4-1.4c.8-1.7,1.4-3.1,2-4.3.5-1.2.7-2.3.6-3.3,0-1-.5-2-1.3-3-.8-.9-2.1-1.9-4-3l-107.7-60.8c-3.5-2-6.1-2.4-7.7-1.4-1.6,1-3.4,3.1-5.1,6.2l-2.4-1.4,53.5-94.8,29.3,16.3-1.5,2.6c-7.1-2.7-12.6-2.9-16.8-.7-4.1,2.2-8,6.5-11.6,12.9l-15.4,27.3c-1.3,2.2-2,4-2.1,5.2s1.1,2.6,3.6,4l37.7,21.2,14-24.9c3-5.4,4-9.7,3.1-13.1-1-3.4-3.9-6.8-8.8-10.4l1.5-2.6,42.3,23.9-1.5,2.6c-5.5-2.5-10.1-3.3-13.6-2.5s-6.9,3.9-10,9.4l-14,24.9,41.2,23.2c2.8,1.5,4.8,1.6,6.3,0,1.4-1.5,2.8-3.4,4-5.6l14-24.9c3.8-6.8,5.5-13,5.2-18.8-.4-5.8-3-11.7-7.8-17.7l1.6-2.8,28.1,21.5-54.1,95.9h0l-.2.3Z"/>
    <path class="st1" d="M374.3,424.9c4.5-.2,8.4,1.2,11.8,4.2,3.3,3,5.1,6.7,5.4,11.2s-1.1,8.5-4.2,11.9-6.8,5.2-11.3,5.5c-4.5.2-8.4-1.2-11.8-4.2-3.4-3.1-5.2-6.8-5.5-11.3-.2-4.5,1.2-8.4,4.2-11.8,3.1-3.4,6.8-5.2,11.3-5.5h.1Z"/>
    <path class="st1" d="M536.8,381.8l-44.5,33.1-1.7-2.2c1.4-1.2,2.6-2.3,3.6-3.2,1-.9,1.7-1.9,2-2.9s.3-2,0-3.2c-.4-1.1-1.2-2.6-2.5-4.3l-73.9-99.2c-2.4-3.2-4.6-4.7-6.5-4.4-1.9.3-4.3,1.5-7.2,3.6l-1.7-2.2,84.5-63,20.2,26.8-2.4,1.8c-5.4-5.3-10.4-7.8-15-7.4-4.7.4-9.9,2.7-15.8,7.1l-22.4,16.7c-2.1,1.5-3.4,2.9-4,3.9-.6,1.1,0,2.8,1.6,5.1l26,34.9,20.5-15.3c4.9-3.7,7.7-7.3,8.3-10.9.6-3.5-.7-8-3.7-13.2l2.4-1.8,29.1,39-2.4,1.8c-4.1-4.6-8-7.2-11.7-7.8-3.7-.6-8,1-13.1,4.8l-20.5,15.3,33.8,45.4c1.4,1.8,2.7,3.1,3.9,3.6s2.5.8,3.6.5,2.4-.8,3.7-1.7c1.3-.9,2.7-1.9,4.2-3l1.7,2.2h0Z"/>
    <path class="st1" d="M667.6,263.3l12.1,35.3-97.1,49.2-1.3-2.5c3.2-1.9,5.3-3.6,6.4-5s.6-4-1.2-7.7l-55.9-110.3c-1.8-3.6-3.7-5.4-5.5-5.4s-4.4.7-7.7,2.2l-1.3-2.5,48.5-24.6,1.3,2.5c-1.7,1-3.2,1.9-4.4,2.7s-2.2,1.6-2.8,2.5c-.7.9-1,2-.9,3.2,0,1.2.6,2.9,1.7,4.9l51.6,101.9c1.4,2.8,3.2,4,5.2,3.5s4.2-1.3,6.5-2.4l24.2-12.2c4.2-2.1,7.6-4.3,10-6.4s4.3-4.5,5.5-7,1.9-5.4,2.2-8.7c.3-3.3.2-7.1,0-11.6l3.1-1.6h0Z"/>
    <path class="st1" d="M815.3,211.7c-.8,9.9-3.3,19-7.7,27.3-4.3,8.3-10.4,15.6-18.2,21.7-7.8,6.2-17.1,10.8-28,13.9-11,3.1-21.5,4.2-31.3,3.1s-18.8-4-26.9-8.8-15-11.2-20.9-19.3c-5.9-8.1-10.3-17.5-13.4-28.3-3.1-10.9-4.3-21.3-3.6-31.3.7-9.9,3.2-19.1,7.5-27.4,4.3-8.3,10.4-15.5,18.2-21.6s17.3-10.7,28.5-13.9c11-3.1,21.5-4.1,31.3-3,9.9,1.2,18.8,4.1,26.8,8.8s14.9,11.2,20.8,19.4c5.9,8.2,10.4,17.6,13.4,28.4,3,10.8,4.2,21.1,3.4,31h.1ZM771.5,171.1c-3.1-6.6-6.9-12.5-11.5-17.5s-9.9-8.8-16-11.3-12.9-2.7-20.5-.6c-7.7,2.2-13.5,6-17.4,11.3-3.8,5.3-6.4,11.4-7.6,18-1.2,6.7-1.4,13.7-.5,20.9.9,7.3,2.2,14,3.9,20,1.8,6.2,4.2,12.6,7.2,19.2,3.1,6.6,6.9,12.4,11.5,17.5s9.9,8.9,16,11.3c6.1,2.5,13,2.6,20.7.4,7.6-2.2,13.3-5.9,17.2-11.1,3.9-5.3,6.4-11.3,7.6-18,1.2-6.8,1.4-13.8.5-21.1s-2.2-13.9-3.9-20-4.1-12.4-7.2-19.1h0Z"/>
    <path class="st1" d="M879.2,235.7c.3,4,1.4,6.4,3.2,7.2s4.5,1.1,7.9.8l.2,2.8-53.2,3.9-.2-2.8c3.6-.4,6.2-1.1,7.8-2.1,1.7-1,2.3-3.6,2-7.7l-9-123.4c-.3-3.9-1.4-6.3-3.3-7.2-1.9-.9-4.5-1.2-7.8-.8l-.2-2.8,59.4-4.3c6.6-.5,13.3-.5,20.3,0s13.3,1.8,19.1,4.2c5.8,2.4,10.6,6,14.6,10.8,3.9,4.8,6.2,11.3,6.8,19.5.4,5.1-.3,9.8-2.1,14s-4.3,7.9-7.5,11.1c-3.2,3.3-7,6.1-11.4,8.4s-8.9,4.2-13.5,5.5c4.8,2.8,9.3,6.4,13.4,10.8,4.1,4.4,8,9,11.5,13.9s6.8,9.8,9.9,14.7c3.1,4.9,5.9,9.3,8.5,13.2s5,7,7.3,9.4c2.2,2.4,4.4,3.4,6.4,3.3l.2,2.8-39,2.8c-5.6-12.2-12.1-23.5-19.5-33.7s-16.3-19.6-26.8-28l-8.8.9,3.9,53h0v-.2ZM881,167.4c5-.4,9.6-1,13.8-2,4.2-.9,7.7-2.5,10.7-4.7s5.1-5,6.6-8.7c1.5-3.6,2-8.3,1.6-14-.7-9-3.6-15.4-8.8-19.1s-12.1-5.3-20.7-4.6-5.5.7-7.8,1.3c-2.3.7-4.1,2.4-5.3,5.2l3.4,47,6.7-.5h-.2Z"/>
    <path class="st1" d="M975.8,241l.3-2.8h4.8c1.3,0,2.4-.2,3.3-.7.9-.5,1.7-1.3,2.2-2.4.5-1.1.9-2.7,1.2-4.9l13.3-123c.4-4-.2-6.5-1.8-7.7-1.6-1.1-4.2-1.9-7.8-2.2l.3-2.8,108.2,11.7-3.4,33.4-3-.3c-.3-7.5-2.3-12.8-6-15.7s-9.1-4.8-16.4-5.6l-31.2-3.4c-2.6-.3-4.4-.2-5.6,0-1.2.4-1.9,2-2.2,4.8l-4.7,43,28.4,3.1c6.1.7,10.5-.1,13.2-2.4,2.7-2.2,4.7-6.3,6.1-12.2l3,.3-5.2,48.3-3-.3c0-6.1-.9-10.6-3.1-13.5s-6.3-4.8-12.6-5.5l-28.4-3.1-5.1,47.1c-.3,3.1.5,5.1,2.4,5.8s4.2,1.2,6.8,1.5l28.4,3.1c7.7.8,14.1,0,19.3-2.7,5.2-2.6,9.6-7.3,13.2-14.1l3.2.4-8.7,34.3-109.5-11.9h0v.3Z"/>
    <path class="st1" d="M1240.4,156.3c1.2-4,1.2-6.9,0-8.9-1.2-1.9-3.7-3.4-7.4-4.4l.8-2.7,37.7,11.3-.8,2.7c-2-.4-3.6-.7-4.8-.7s-2.4.3-3.3.8c-.9.6-1.7,1.4-2.3,2.6-.7,1.1-1.3,2.8-1.9,4.8l-39,129.8-19.4-5.8c-.4-.7-.6-1.2-.7-1.5l-42.1-130.6-28.2,93.7c-.7,2.3-1.1,4.3-1.3,5.8s0,2.8.6,3.9,1.6,2,2.9,2.7c1.4.7,3.1,1.4,5.3,2l-.7,2.5-39.1-11.8.7-2.5c2.2.5,4.1.8,5.5.9s2.6-.2,3.6-.8,1.8-1.5,2.5-2.8,1.4-3.1,2.1-5.4l34.1-113.5c.9-2.9.7-5.7-.4-8.4-1.1-2.7-3.2-4.5-6.3-5.3l.8-2.7,40.2,12.1c5.6,19.8,11.5,39.3,17.7,58.5s12.1,38.8,17.7,58.5l25.5-84.9h0Z"/>
    <path class="st1" d="M1356.1,340.6c-9.6,2.4-18.6,3.1-27.1,2.1s-17.2-3.8-25.9-8.5c-10.4-5.5-19.1-12-26.1-19.5s-12.1-15.7-15.2-24.7-4.2-18.4-3.2-28.5c1-10,4.3-20.4,9.9-31,5.4-10.3,12-18.8,19.8-25.5,7.8-6.8,16.3-11.6,25.5-14.4,9.2-2.9,18.9-3.7,29.2-2.5,10.2,1.2,20.5,4.5,30.8,9.9,7.2,3.8,13.8,8.7,19.7,14.8.3.3,1.1,1.1,2.2,2.3,1.2,1.2,2.4,2.4,3.8,3.7s2.6,2.5,3.7,3.6,1.8,1.7,2.1,1.8c1.5.6,2.8.7,4,.3s2.2-1.2,3.2-2.3l2.8,1.5-17.9,34.3c-.2,0-1.3-.1-3.4-.6.7-9.4-1.2-18.1-5.9-26.1s-11.2-14.3-19.6-18.7c-7.6-4-14.8-5.8-21.6-5.3-6.8.5-13.1,2.4-18.9,5.9s-11.1,8.1-15.8,13.8c-4.7,5.7-8.8,11.8-12.2,18.2-3.6,6.7-6.1,13.8-7.7,21.1-1.6,7.3-2,14.5-1.2,21.6s2.8,13.8,6.1,20.1,8,11.9,14.2,16.6c7.4,5.7,15,9.4,22.9,11.1s15.7,1.6,23.5-.5l-1.6,5.3h-.1Z"/>
    <path class="st1" d="M1353.9,358l1.7-2.2c1.6,1,2.9,1.9,4,2.6s2.2,1.1,3.2,1.1,2.1-.2,3.1-.8c1.1-.6,2.2-1.8,3.6-3.5l76.4-97.3c2.5-3.2,3.3-5.6,2.6-7.4-.8-1.8-2.6-3.8-5.4-6l1.7-2.2,85.6,67.2-20.6,26.5-2.4-1.9c3.7-6.6,4.8-12.1,3.2-16.5-1.6-4.4-5.2-8.9-11-13.4l-24.7-19.4c-2-1.6-3.7-2.5-4.9-2.9s-2.7.7-4.5,2.9l-26.7,34,22.5,17.7c4.8,3.8,9,5.5,12.5,5s7.3-2.9,11.6-7.1l2.4,1.9-30,38.2-2.4-1.9c3.3-5.1,4.8-9.5,4.5-13.1-.2-3.6-2.8-7.4-7.8-11.3l-22.5-17.7-29.2,37.2c-1.9,2.5-2.3,4.5-1,6.2,1.3,1.6,2.9,3.2,4.9,4.8l22.5,17.7c6.1,4.8,12,7.4,17.8,8s12-1.1,18.7-5l2.5,2-25.5,24.5-86.6-68h.2Z"/>
    <path class="st1" d="M1576.9,461.5c-.4,4.4-2.4,8.1-6,11-3.4,2.8-7.4,4-11.9,3.7-4.5-.4-8.2-2.4-11.1-5.9s-4.2-7.5-3.7-12,2.4-8.1,6-11,7.5-4.2,12-3.7c4.4.4,8.1,2.4,11,6,2.9,3.5,4.2,7.5,3.7,12h0Z"/>
  </g>
  <g>
    <circle class="st2" cx="960" cy="960" r="670"/>
    <path class="st1" d="M960,1653.2c-185.2,0-359.2-72.1-490.2-203-130.9-130.9-203-305-203-490.2s72.1-359.2,203-490.2c130.9-130.9,305-203,490.2-203s359.2,72.1,490.2,203c130.9,130.9,203,305,203,490.2s-72.1,359.2-203,490.2c-130.9,130.9-305,203-490.2,203h0ZM960,313.2c-172.8,0-335.2,67.3-457.4,189.4-122.2,122.2-189.5,284.6-189.5,457.4s67.3,335.2,189.5,457.4c122.2,122.2,284.6,189.4,457.4,189.4s335.2-67.3,457.4-189.4c122.2-122.2,189.4-284.6,189.4-457.4s-67.3-335.2-189.4-457.4c-122.2-122.2-284.6-189.5-457.4-189.5h0Z"/>
  </g>
  <image class="st0" width="800" height="800" transform="translate(104.5 104.5) scale(2.1)" xlink:href="../../../../../../../../../../Users/melissamaarek/Downloads/image-from-rawpixel-id-20231149-png.png"/>
</svg>