<?xml version="1.0" encoding="UTF-8"?>
<svg id="Layer_1" data-name="Layer 1" xmlns="http://www.w3.org/2000/svg" viewBox="0 0 1920 899.37">
  <defs>
    <style>
      .cls-1 {
        fill: #ef1508;
      }
    </style>
  </defs>
  <g id="Layer_1-2" data-name="Layer 1-2">
    <rect class="cls-1" width="1920" height="899.37" rx="74.33" ry="74.33"/>
    <g>
      <path d="M414.12,445.59c5.19,4.67,11.03,11.16,17.51,19.46s13.62,22.57,21.4,42.81c7.78,20.24,11.67,41.25,11.67,63.04,0,26.98-4.41,50.85-13.23,71.6-8.82,20.75-19.07,36.45-30.74,47.09-11.67,10.64-24.52,19.33-38.52,26.07-14.01,6.75-25.29,10.9-33.85,12.45-8.56,1.56-15.18,2.33-19.85,2.33h-108.96V185.64h108.96c22.31,0,42.16,4.93,59.54,14.79,17.38,9.86,30.74,22.7,40.08,38.52,9.34,15.82,16.34,31.91,21.01,48.25,4.67,16.34,7,32.3,7,47.86,0,51.37-13.23,87.69-39.69,108.96-1.04.52-1.82,1.04-2.33,1.56h0ZM312.17,278.26v125.3h17.12c8.3,0,15.31-4.41,21.01-13.23,5.71-8.82,9.47-17.77,11.28-26.85,1.82-9.08,2.72-17.77,2.72-26.07,0-6.23-.52-12.32-1.56-18.29-1.04-5.97-2.72-12.19-5.06-18.68s-6.1-11.8-11.28-15.95-11.16-6.23-17.9-6.23h-16.34,0ZM312.17,637.82h19.46c8.3,0,15.57-3.24,21.79-9.73s10.9-15.05,14.01-25.68c3.11-10.64,4.67-22.44,4.67-35.41,0-22.31-4.15-40.99-12.45-56.04-8.3-15.05-18.68-22.57-31.13-22.57h-16.34v149.43h0Z"/>
      <path d="M711.42,278.26h-113.63v136.2h81.72v91.84h-81.72v131.53h113.63v92.61h-205.46V185.64h205.46v92.61h0Z"/>
      <path d="M1004.83,725.77h-1.56l1.56,4.67h-96.51l-56.81-203.91h-8.56v203.91h-92.61V185.64h108.96c14.53,0,29.06,2.33,43.58,7,16.08,5.19,30.35,14.27,42.81,27.24,12.45,12.97,22.57,30.35,30.35,52.14,7.78,21.79,11.67,49.68,11.67,83.66s-3.89,61.87-11.67,83.66c-7.78,22.31-17.9,39.95-30.35,52.92-1.04,1.56-2.59,3.11-4.67,4.67l63.82,228.81h0ZM842.95,278.26v156.43h16.34c3.11,0,7.26-.52,12.45-1.56,2.59-.52,5.45-2.33,8.56-5.45,3.63-4.15,6.75-11.41,9.34-21.79,3.11-10.9,4.67-27.5,4.67-49.81s-1.56-38.39-4.67-49.81c-2.59-10.38-5.71-17.38-9.34-21.01-3.11-3.63-5.97-5.71-8.56-6.23-5.19-.52-9.34-.78-12.45-.78,0,0-16.34,0-16.34,0Z"/>
      <path d="M1132.47,637.04h113.63v92.61h-205.46V184.87h91.84v452.18Z"/>
      <path d="M1570.61,185.64h92.61v544.79h-88.72l-66.93-231.15v231.15h-91.84V185.64h88.72l66.15,232.7v-232.7Z"/>
    </g>
    <g>
      <polygon points="1340.52 401.95 1303.11 401.95 1292.74 735.08 1350.9 735.08 1340.52 401.95"/>
      <circle cx="1321.82" cy="392.22" r="53.39"/>
      <rect x="1304.67" y="310.06" width="34.32" height="57.18"/>
      <polygon points="1324.88 182.04 1319.77 182.04 1313.7 371.39 1329.94 371.39 1324.88 182.04"/>
    </g>
    <path d="M1765.85,815.73H154.12c-39.54,0-71.7-32.17-71.7-71.7V155.37c0-39.54,32.17-71.7,71.7-71.7h1611.73c39.54,0,71.7,32.17,71.7,71.7v588.66c0,39.54-32.17,71.7-71.7,71.7ZM154.12,94.04c-33.83,0-61.33,27.52-61.33,61.33v588.66c0,33.83,27.52,61.33,61.33,61.33h1611.73c33.83,0,61.33-27.52,61.33-61.33V155.37c0-33.83-27.52-61.33-61.33-61.33H154.12Z"/>
  </g>
</svg>