<?xml version="1.0" encoding="UTF-8"?>
<svg id="Layer_1" data-name="Layer 1" xmlns="http://www.w3.org/2000/svg" viewBox="0 0 1920 1954.14">
  <defs>
    <style>
      .cls-1 {
        fill: #030305;
      }

      .cls-2 {
        fill: #2e55c6;
      }
    </style>
  </defs>
  <path class="cls-2" d="M1087.44,624.4c35.68,46.47,93.52,60.15,155.79,71.14,155.05,27.36,390.36-3.32,430.03,41.5,17.92,20.21-2.13,41.02-19.51,52.66-44.74,30.04-255.77,42.27-372.13,75.07-183.26,51.67,197.73,401.74,164.21,502.78-26.41,79.65-404.34-498.02-429.75-235.16-42.76,442.9-39.33,742.24-76.12,808.6-4.3,7.72-30.09,25.77-37.74-.93-21.39-89.12-20.72-452.79-42.04-667.58-11.66-117.49-16.91-204.11-67.88-258.51-28.37-30.2-83.92-20.54-118-8.73-71.53,24.79-114.42,56.54-187.9,82.22-32.05,11.2-213.77,92.7-247.28,86.57-10.07-1.85-16.86-13.59-16.06-24.79,3.6-47.34,249.69-223.65,291.24-255.28,30.66-23.37,97.03-79.05,115.95-112.41,13.05-23.12,11.53-41.65-.08-63.92-23.37-44.66-73.62-89.13-104.61-127.98-36.01-45.1-146.14-163.23-163.29-214.36-6.44-19.2,13.03-27.52,30.25-22.4,78.28,23.35,259.61,190.44,339.44,211.24,34.65,9.04,57.07,13.08,88.4-8.37,61.06-41.81,99.98-224.5,123.9-305.18,24.58-82.89,68.73-205.01,104.33-240.1,14.29-14.03,30.53-15.7,38.15,5.64,18.61,52.21-30.14,291.41-35.22,361.3-5.38,73.83-8.91,188.56,35.91,246.97"/>
  <g>
    <path class="cls-1" d="M10.29,656.26h56.94c4.31,0,8.18,2.6,9.64,6.52l77.72,205.52c3.3,8.68,16.04,8.68,19.33,0l77.71-205.52c1.49-3.92,5.34-6.52,9.65-6.52h56.94c7.25,0,12.23,7.07,9.54,13.59l-124.58,302.07c-1.56,3.77-5.35,6.25-9.57,6.25h-59.36c-4.21,0-8.01-2.49-9.56-6.27L.74,669.84c-2.68-6.52,2.28-13.58,9.56-13.58"/>
    <path class="cls-1" d="M328.98,816.57c0-98.5,68.03-170.6,168.46-170.6s167.79,71.46,167.79,169.96-68.04,171.24-167.79,171.24-168.46-72.1-168.46-170.6M590.57,815.93c0-58.6-35.67-104.95-93.14-104.95s-93.81,46.35-93.81,105.59,35.67,105.58,93.81,105.58,93.14-47,93.14-106.22"/>
    <path class="cls-1" d="M1743.44,656.26h53.4c5.69,0,10.3,4.48,10.29,9.97-.04,14.28-.25,26.95-1.31,42.19,19.16-37.98,56.16-55.38,95.13-55.38,3.56,0,6.75.2,10.08.57,5.17.59,9.04,4.91,8.98,9.95l-.46,48.09c-.06,5.53-4.8,9.97-10.54,9.81-5.98-.17-11.89-.17-18.63-.17-53.52,0-81.93,33.48-81.93,84.99v161.33c0,5.48-4.59,9.92-10.26,9.92h-54.75c-5.68,0-10.29-4.44-10.29-9.92v-301.41c0-5.47,4.61-9.92,10.29-9.92"/>
    <path class="cls-1" d="M1608.37,945.23c.07-7.84-9.91-11.44-15.31-5.58-24.59,26.74-60.42,40.44-99.68,40.44-88.53,0-142.7-72.75-142.7-166.09s56.16-165.46,148.63-165.46c46.25,0,86.54,17.39,110.33,58.59-1.07-14.14-1.71-26.57-1.92-40.77-.09-5.54,4.56-10.1,10.28-10.1h54.03c5.68,0,10.28,4.44,10.28,9.92v295.24c0,101.71-69.36,160.3-169.77,160.3-70.78,0-119.97-27.29-148.67-74.95-3-4.99-.98-11.4,4.39-13.93l47.01-22.23c4.8-2.26,10.55-.56,13.33,3.84,17.66,27.89,45.82,43.54,83.94,43.54,57.46,0,95.78-36.04,95.78-90.76,0-8.64,0-15.46.05-21.99M1608.98,814.64c0-58.59-35.68-100.44-93.14-100.44-56.15,1.29-90.5,43.78-90.5,101.08s35.02,98.5,90.5,98.5,93.14-39.92,93.14-99.14"/>
    <path class="cls-1" d="M786.51,967.32l-124.82-297.42c-2.73-6.53,2.26-13.64,9.53-13.64h58.19c4.31,0,8.14,2.58,9.64,6.47l78.41,204.15c3.3,8.62,15.94,8.64,19.26.03l79.01-204.2c1.49-3.88,5.33-6.45,9.63-6.45h57.6c7.27,0,12.24,7.1,9.55,13.61l-182.01,437.27c-1.55,3.76-5.35,6.22-9.54,6.22h-58.28c-7.31,0-12.3-7.17-9.5-13.69l53.32-124.84c1.02-2.41,1.03-5.1.02-7.5"/>
    <path class="cls-1" d="M984.09,817.21c0-95.93,57.45-168.02,148.63-168.02,46.25,0,85.87,18.02,109.66,58.58-1.08-14.7-1.28-27.27-1.33-41.53,0-5.49,4.62-9.97,10.31-9.97h53.41c5.68,0,10.27,4.44,10.27,9.92v301.42c0,5.48-4.59,9.91-10.27,9.91h-53.42c-5.68,0-10.3-4.46-10.3-9.95.06-14.43.25-26.36,1.33-42.2-24.45,41.2-67.38,59.87-112.96,59.87-89.18,0-145.33-74.04-145.33-168.03M1242.38,816.56c0-59.86-36.34-102.36-93.15-102.36s-90.5,45.06-90.5,103.01,34.36,102.36,90.5,102.36,93.15-42.49,93.15-103.01"/>
  </g>
</svg>