<?xml version="1.0" encoding="UTF-8"?>
<svg id="Layer_1" data-name="Layer 1" xmlns="http://www.w3.org/2000/svg" viewBox="0 0 1920 1099.15">
  <defs>
    <style>
      .cls-1 {
        fill: #020e7a;
      }

      .cls-2 {
        fill: #d0d2d3;
      }
    </style>
  </defs>
  <g>
    <path class="cls-2" d="M1903.24,996.75V101.56c-50.7,0-91.81-37.95-91.81-84.77,0-.01,0-.02,0-.04H108.16c0,.15.01.3.01.44,0,46.69-40.89,84.56-91.41,84.76v894.79c50.52.2,91.41,38.07,91.41,84.76,0,.29-.02.58-.02.88h1703.31c0-.29-.02-.58-.02-.88,0-46.81,41.1-84.76,91.81-84.77Z"/>
    <path class="cls-1" d="M1828.45,1099.15H91.16l.26-17.8c0-37.17-33.52-67.68-74.72-67.84l-16.69-.07V85.27l16.69-.07c41.17-.16,74.66-30.62,74.72-67.91v-.54s-.01-16.76-.01-16.76h1736.79v16.76c0,37.54,33.67,68.04,75.05,68.05h16.76v928.7h-16.76c-41.38,0-75.05,30.51-75.05,68.01l.02.65.23,16.99ZM123.6,1065.64h1672.41c7.32-43.36,44.08-77.69,90.48-84.44V117.11c-46.1-6.71-82.69-40.64-90.33-83.6H123.52c-7.47,42.97-43.98,77.05-90.01,83.93v863.81c46.18,6.91,82.78,41.2,90.08,84.37Z"/>
  </g>
  <g>
    <path class="cls-2" d="M1828.44,930.77V167.66c-46.68,0-84.53-36.9-84.53-77.24,0-.01,0-.02,0-.03H175.72c0,.13.01.25.01.38,0,40.24-37.65,77.06-84.16,77.24v762.77c46.52.17,84.16,37,84.16,77.24,0,.25-.02.5-.02.76h1568.23c0-.25-.02-.5-.02-.76,0-40.34,37.84-77.24,84.53-77.24Z"/>
    <path class="cls-1" d="M1752.31,1017.14H167.19l.16-9.09c0-36.57-35.43-68.75-75.82-68.9l-8.35-.03V159.66l8.35-.03c40.39-.15,75.82-32.32,75.82-68.85v-8.38l8.37-.38h1576.57v8.38c0,36.71,35.58,68.89,76.14,68.9h8.38v779.86h-8.38c-40.56,0-76.14,32.18-76.14,68.86l.02.76v8.38ZM183.72,1000.39h1552.2c4.08-40.45,40.26-73.82,84.14-77.63V175.67c-43.62-3.79-79.62-36.78-84.06-76.91H183.64c-4.41,40.28-40.26,73.29-83.7,77.22v746.8c43.69,3.96,79.7,37.31,83.78,77.6Z"/>
  </g>
  <rect class="cls-1" x="163.89" y="321.2" width="1592.22" height="16.76"/>
  <rect class="cls-1" x="163.89" y="772.87" width="1592.22" height="16.76"/>
  <g>
    <rect class="cls-1" x="867.86" y="266.47" width="183.86" height="23.27" rx="2.78" ry="2.78"/>
    <rect class="cls-1" x="867.86" y="234.72" width="183.86" height="23.27" rx="2.78" ry="2.78"/>
    <path class="cls-1" d="M934.89,169.09c-15.9,8.68-35.17,8.63-52.32,2.57-11.18-1.86-26.34,3.48-28.01,15.07-.67,2.66.3,6.16,1.08,9.89l-.93-1.64c9,15.32,16.05,32.61,24.78,48.12-17.79-7.06-30.95-22.27-43.34-36.33-2.48-5.2-4.37-9.53-5.42-15.48-4.66-29.31,28.26-49.76,54.2-41.22,2.44.64,5.02,1.78,7.27,3.04,12.95,8.56,26.46,12.82,42.68,15.98h0Z"/>
    <path class="cls-1" d="M985.11,169.39c16.22-3.15,29.73-7.42,42.68-15.98,3.78-2.11,8.05-3.57,12.28-4.23,27.38-5.29,56.98,18.43,47.99,47.57-.88,3.85-2.83,6.86-4.22,10.33,0,0-.46.57-.46.57-12.28,13.84-25.3,28.81-42.87,35.76,6.69-11.36,12.06-24.91,18.44-36.4,2.09-3.94,4.21-7.94,6.35-11.73l-.93,1.64c1.71-6.59,2.06-11.74-1.85-16.82-4.22-5.27-14.56-9.33-22.6-8.45-1.24.06-2.49.28-3.67.56-16.5,6.13-35.89,5.45-51.12-2.82h0Z"/>
    <circle class="cls-1" cx="913.85" cy="156.43" r="11.24"/>
    <circle class="cls-1" cx="1008.6" cy="156.43" r="11.24"/>
    <circle class="cls-1" cx="959.97" cy="212.14" r="9.75"/>
    <circle class="cls-1" cx="962.31" cy="147.21" r="22.8"/>
    <circle class="cls-1" cx="899.98" cy="233.04" r="18.29"/>
    <circle class="cls-1" cx="1018.45" cy="233.04" r="18.29"/>
    <circle class="cls-1" cx="878.65" cy="146.06" r="11.24"/>
    <circle class="cls-1" cx="1077.4" cy="157.69" r="11.24"/>
    <circle class="cls-1" cx="1042.49" cy="148.85" r="11.24"/>
    <circle class="cls-1" cx="844.03" cy="157.61" r="11.24"/>
    <polygon class="cls-1" points="983.06 232.11 964.46 213.51 983.06 194.91 983.06 232.11"/>
    <polygon class="cls-1" points="978.31 190.21 959.71 208.81 941.11 190.21 978.31 190.21"/>
    <polygon class="cls-1" points="941.11 235.28 959.71 216.68 978.31 235.28 941.11 235.28"/>
    <polygon class="cls-1" points="937.17 194.91 955.77 213.51 937.17 232.11 937.17 194.91"/>
  </g>
  <g>
    <path class="cls-1" d="M636.75,842.16h9.22v40.08c0,4.26-1,8.04-3,11.32-2,3.29-4.82,5.86-8.45,7.74-3.63,1.87-7.88,2.81-12.76,2.81s-9.1-.94-12.74-2.81c-3.63-1.87-6.44-4.45-8.45-7.74-2-3.28-3.01-7.06-3.01-11.32v-40.08h9.2v39.34c0,2.76.61,5.21,1.83,7.35,1.22,2.14,2.95,3.83,5.19,5.04,2.24,1.22,4.9,1.83,7.97,1.83s5.77-.61,8.02-1.83c2.25-1.22,3.98-2.9,5.18-5.04,1.2-2.14,1.8-4.59,1.8-7.35v-39.34Z"/>
    <path class="cls-1" d="M708.54,842.16v60.94h-8.45l-30.97-44.69h-.56v44.69h-9.2v-60.94h8.51l31.01,44.75h.56v-44.75h9.1Z"/>
    <path class="cls-1" d="M731.12,842.16v60.94h-9.2v-60.94h9.2Z"/>
    <path class="cls-1" d="M741.5,850.08v-7.92h47.16v7.92h-19.01v53.02h-9.16v-53.02h-18.98Z"/>
    <path class="cls-1" d="M799.05,903.1v-60.94h38.21v7.92h-29.01v18.57h27.01v7.88h-27.01v18.66h29.37v7.92h-38.56Z"/>
    <path class="cls-1" d="M869.3,903.1h-19.73v-60.94h20.35c5.97,0,11.1,1.22,15.38,3.65,4.28,2.43,7.57,5.91,9.86,10.44s3.44,9.96,3.44,16.29-1.16,11.8-3.47,16.36c-2.31,4.56-5.65,8.07-10.02,10.52-4.36,2.45-9.64,3.67-15.83,3.67ZM858.77,895.06h10.03c4.64,0,8.5-.88,11.57-2.63,3.07-1.76,5.38-4.3,6.9-7.65,1.53-3.34,2.29-7.43,2.29-12.24s-.76-8.84-2.27-12.17c-1.52-3.33-3.78-5.86-6.77-7.59-2.99-1.73-6.71-2.59-11.16-2.59h-10.59v44.87Z"/>
    <path class="cls-1" d="M932.22,903.1v-60.94h9.2v29.1h.74l25.56-29.1h11.57l-24.58,27.44,24.67,33.5h-11.07l-19.69-27.23-7.2,8.27v18.95h-9.2Z"/>
    <path class="cls-1" d="M997.09,842.16v60.94h-9.2v-60.94h9.2Z"/>
    <path class="cls-1" d="M1059.66,842.16v60.94h-8.45l-30.97-44.69h-.56v44.69h-9.2v-60.94h8.51l31.01,44.75h.56v-44.75h9.1Z"/>
    <path class="cls-1" d="M1114.28,861.41c-.57-1.8-1.34-3.43-2.3-4.86-.96-1.44-2.11-2.67-3.44-3.69-1.33-1.02-2.84-1.8-4.54-2.34-1.7-.54-3.56-.8-5.58-.8-3.43,0-6.53.88-9.28,2.65-2.76,1.77-4.93,4.35-6.53,7.75-1.6,3.4-2.4,7.56-2.4,12.48s.8,9.12,2.41,12.53c1.61,3.41,3.81,6,6.61,7.77,2.79,1.77,5.98,2.65,9.55,2.65,3.31,0,6.21-.68,8.67-2.03,2.47-1.35,4.39-3.26,5.74-5.73,1.36-2.47,2.04-5.38,2.04-8.73l2.38.45h-17.44v-7.59h23.95v6.93c0,5.12-1.09,9.56-3.26,13.31-2.17,3.76-5.17,6.66-8.98,8.71-3.82,2.04-8.19,3.06-13.11,3.06-5.51,0-10.35-1.27-14.5-3.81-4.16-2.54-7.39-6.14-9.72-10.82-2.32-4.67-3.48-10.22-3.48-16.65,0-4.86.68-9.23,2.03-13.09s3.25-7.16,5.7-9.86c2.45-2.71,5.33-4.78,8.66-6.22,3.32-1.44,6.96-2.16,10.9-2.16,3.29,0,6.37.49,9.21,1.46,2.85.97,5.39,2.35,7.62,4.14,2.23,1.78,4.08,3.9,5.55,6.35,1.46,2.45,2.46,5.16,2.97,8.14h-9.43Z"/>
    <path class="cls-1" d="M1155.52,903.1h-19.73v-60.94h20.35c5.97,0,11.1,1.22,15.38,3.65,4.28,2.43,7.57,5.91,9.86,10.44,2.29,4.53,3.44,9.96,3.44,16.29s-1.16,11.8-3.47,16.36c-2.31,4.56-5.65,8.07-10.02,10.52-4.36,2.45-9.64,3.67-15.83,3.67ZM1144.99,895.06h10.03c4.64,0,8.5-.88,11.57-2.63,3.07-1.76,5.38-4.3,6.9-7.65,1.53-3.34,2.29-7.43,2.29-12.24s-.76-8.84-2.27-12.17c-1.52-3.33-3.78-5.86-6.77-7.59-2.99-1.73-6.71-2.59-11.16-2.59h-10.59v44.87Z"/>
    <path class="cls-1" d="M1249.19,872.63c0,6.5-1.19,12.09-3.57,16.77-2.38,4.67-5.64,8.26-9.77,10.77-4.14,2.51-8.83,3.76-14.09,3.76s-9.98-1.26-14.12-3.76c-4.14-2.51-7.39-6.1-9.77-10.79-2.38-4.68-3.57-10.26-3.57-16.75s1.19-12.1,3.57-16.77c2.38-4.67,5.64-8.26,9.77-10.77,4.14-2.51,8.84-3.76,14.12-3.76s9.95,1.26,14.09,3.76c4.14,2.51,7.39,6.1,9.77,10.77,2.38,4.67,3.57,10.26,3.57,16.77ZM1240.08,872.63c0-4.96-.8-9.14-2.39-12.54-1.6-3.4-3.78-5.98-6.55-7.74-2.77-1.76-5.9-2.63-9.39-2.63s-6.64.88-9.4,2.63c-2.76,1.76-4.93,4.34-6.53,7.74-1.6,3.4-2.4,7.59-2.4,12.54s.8,9.14,2.4,12.54c1.6,3.4,3.77,5.98,6.53,7.74,2.76,1.76,5.89,2.63,9.4,2.63s6.62-.88,9.39-2.63c2.77-1.76,4.95-4.33,6.55-7.74,1.6-3.4,2.39-7.58,2.39-12.54Z"/>
    <path class="cls-1" d="M1260.61,842.16h11.16l19.4,47.37h.72l19.4-47.37h11.16v60.94h-8.75v-44.09h-.56l-17.97,44h-7.26l-17.97-44.03h-.56v44.12h-8.75v-60.94Z"/>
  </g>
  <g>
    <path class="cls-1" d="M235.33,639.75c0,6.54.5,11.25,1.51,14.14,1,2.89,2.95,4.84,5.84,5.85,2.89,1.01,7.6,1.51,14.14,1.51h12.82c19.6,0,36.57-5.21,50.9-15.64,14.33-10.43,23.88-24.57,28.65-42.42,0-.5.5-.76,1.51-.76.5,0,1.07.19,1.7.57.62.38.94.69.94.94-2.26,24.89-3.39,45.62-3.39,62.21,0,2.02-.44,3.46-1.32,4.34-.88.88-2.33,1.32-4.34,1.32h-177.96c-.51,0-.76-.76-.76-2.26s.25-2.26.76-2.26c8.04,0,13.89-.63,17.53-1.89,3.64-1.26,6.16-3.71,7.54-7.35,1.38-3.64,2.07-9.24,2.07-16.78v-174.57c0-7.54-.7-13.07-2.07-16.59-1.38-3.52-3.96-5.97-7.73-7.35-3.77-1.38-9.56-2.07-17.34-2.07-.51,0-.76-.76-.76-2.26s.25-2.26.76-2.26l19.23.38c11.56.51,21.11.75,28.65.75s17.09-.25,28.65-.75l19.23-.38c.76,0,1.13.75,1.13,2.26s-.38,2.26-1.13,2.26c-7.79,0-13.57.7-17.34,2.07-3.77,1.38-6.28,3.9-7.54,7.54-1.26,3.65-1.89,9.24-1.89,16.78v172.68Z"/>
    <path class="cls-1" d="M436.11,659.93c-18.23-10.94-32.3-25.76-42.23-44.49-9.93-18.72-14.89-39.15-14.89-61.27,0-25.89,6.53-48.08,19.6-66.55,13.07-18.48,29.85-32.36,50.34-41.66,20.48-9.3,41.41-13.95,62.77-13.95,23.88,0,44.87,5.6,62.97,16.78,18.1,11.19,31.98,25.96,41.66,44.3,9.67,18.35,14.52,37.84,14.52,58.44,0,22.87-6.03,43.87-18.1,62.96-12.06,19.11-28.22,34.19-48.45,45.25-20.23,11.06-42.17,16.59-65.79,16.59s-44.18-5.47-62.4-16.4ZM548.84,654.65c11.18-8.16,19.92-20.1,26.2-35.82,6.28-15.71,9.43-34.5,9.43-56.37,0-23.12-3.52-43.8-10.56-62.02-7.04-18.22-17.22-32.48-30.54-42.79-13.33-10.31-28.91-15.46-46.75-15.46-22.88,0-40.47,8.62-52.79,25.83-12.32,17.22-18.47,41.29-18.47,72.21,0,24.38,3.7,46.19,11.12,65.42,7.41,19.23,17.59,34.25,30.54,45.06,12.94,10.81,27.58,16.21,43.93,16.21,14.07,0,26.7-4.08,37.89-12.26Z"/>
    <path class="cls-1" d="M922.68,438.41c0,1.51-.25,2.26-.75,2.26-10.06,0-17.98,3.96-23.75,11.88-5.78,7.92-8.67,18.54-8.67,31.86v193.05c0,.75-.56,1.26-1.7,1.51-1.13.25-1.95.12-2.45-.38l-176.83-201.34v146.67c0,13.33,2.76,23.88,8.3,31.67,5.52,7.79,13.19,11.69,23,11.69.5,0,.76.75.76,2.26s-.25,2.26-.76,2.26c-7.04,0-12.44-.12-16.21-.38l-20.36-.38-23.38.38c-4.28.25-10.43.38-18.48.38-.75,0-1.13-.76-1.13-2.26s.38-2.26,1.13-2.26c11.06,0,19.8-3.89,26.2-11.69,6.41-7.79,9.61-18.34,9.61-31.67v-159.49c-8.29-9.05-15.4-15.27-21.3-18.66-5.91-3.4-12-5.09-18.28-5.09-.51,0-.76-.76-.76-2.26s.25-2.26.76-2.26l15.83.38c3.26.25,8.04.38,14.33.38l28.65-.38c3.52-.25,7.79-.38,12.82-.38,2.01,0,3.52.51,4.52,1.51,1,1.01,2.76,3.15,5.28,6.41,4.27,5.78,7.29,9.68,9.05,11.69l130.46,150.44v-121.79c0-13.57-2.77-24.25-8.29-32.05-5.53-7.79-13.2-11.69-23-11.69-.51,0-.75-.76-.75-2.26s.25-2.26.75-2.26l16.21.38c8.04.51,14.83.75,20.36.75,5.02,0,12.06-.25,21.11-.75l16.97-.38c.5,0,.75.75.75,2.26Z"/>
    <path class="cls-1" d="M1020.7,672.18c-4.03-.25-8.99-.5-14.89-.75-5.91-.25-12.51-.38-19.8-.38l-27.9.38c-5.03.25-11.82.38-20.36.38-.51,0-.76-.76-.76-2.26s.25-2.26.76-2.26c8.04,0,13.95-.63,17.72-1.89,3.77-1.26,6.35-3.71,7.73-7.35,1.38-3.64,2.07-9.24,2.07-16.78v-174.57c0-7.54-.69-13.07-2.07-16.59-1.39-3.52-3.9-5.97-7.54-7.35-3.65-1.38-9.36-2.07-17.15-2.07-.75,0-1.13-.76-1.13-2.26s.38-2.26,1.13-2.26l19.99.38c11.56.51,20.73.75,27.52.75,10.31,0,20.86-.38,31.67-1.13,13.07-.5,21.87-.76,26.39-.76,25.39,0,47.94,5.03,67.68,15.08,19.73,10.06,35,23.75,45.81,41.1,10.8,17.35,16.21,36.83,16.21,58.44,0,24.38-5.6,45.94-16.78,64.67-11.19,18.73-26.27,33.18-45.24,43.36-18.98,10.18-39.78,15.27-62.4,15.27-8.05,0-17.6-.38-28.65-1.13ZM1088.19,652.39c12.31-8.17,21.92-20.3,28.84-36.39,6.91-16.08,10.37-35.31,10.37-57.69s-3.27-40.78-9.8-58.25c-6.54-17.47-15.84-31.23-27.9-41.29-12.06-10.05-26.02-15.08-41.85-15.08s-26.27,1.51-32.05,4.52c-5.78,3.02-8.67,9.43-8.67,19.23v169.67c0,10.06,2.64,17.15,7.92,21.3,5.28,4.15,15.46,6.22,30.54,6.22,16.08,0,30.29-4.08,42.61-12.25Z"/>
    <path class="cls-1" d="M1267.85,659.93c-18.23-10.94-32.3-25.76-42.23-44.49-9.93-18.72-14.89-39.15-14.89-61.27,0-25.89,6.53-48.08,19.6-66.55,13.07-18.48,29.85-32.36,50.34-41.66,20.48-9.3,41.41-13.95,62.77-13.95,23.88,0,44.87,5.6,62.97,16.78,18.1,11.19,31.98,25.96,41.66,44.3,9.67,18.35,14.52,37.84,14.52,58.44,0,22.87-6.03,43.87-18.1,62.96-12.06,19.11-28.22,34.19-48.45,45.25-20.23,11.06-42.17,16.59-65.79,16.59s-44.18-5.47-62.4-16.4ZM1380.59,654.65c11.18-8.16,19.92-20.1,26.2-35.82,6.28-15.71,9.43-34.5,9.43-56.37,0-23.12-3.52-43.8-10.56-62.02-7.04-18.22-17.22-32.48-30.54-42.79-13.33-10.31-28.91-15.46-46.75-15.46-22.88,0-40.47,8.62-52.79,25.83-12.32,17.22-18.47,41.29-18.47,72.21,0,24.38,3.7,46.19,11.12,65.42,7.41,19.23,17.59,34.25,30.54,45.06,12.94,10.81,27.58,16.21,43.93,16.21,14.07,0,26.7-4.08,37.89-12.26Z"/>
    <path class="cls-1" d="M1754.42,438.41c0,1.51-.25,2.26-.75,2.26-10.06,0-17.98,3.96-23.75,11.88-5.78,7.92-8.67,18.54-8.67,31.86v193.05c0,.75-.56,1.26-1.7,1.51-1.13.25-1.95.12-2.45-.38l-176.83-201.34v146.67c0,13.33,2.76,23.88,8.3,31.67,5.52,7.79,13.19,11.69,23,11.69.5,0,.76.75.76,2.26s-.25,2.26-.76,2.26c-7.04,0-12.44-.12-16.21-.38l-20.36-.38-23.38.38c-4.28.25-10.43.38-18.48.38-.75,0-1.13-.76-1.13-2.26s.38-2.26,1.13-2.26c11.06,0,19.8-3.89,26.2-11.69,6.41-7.79,9.61-18.34,9.61-31.67v-159.49c-8.29-9.05-15.4-15.27-21.3-18.66-5.91-3.4-12-5.09-18.28-5.09-.51,0-.76-.76-.76-2.26s.25-2.26.76-2.26l15.83.38c3.26.25,8.04.38,14.33.38l28.65-.38c3.52-.25,7.79-.38,12.82-.38,2.01,0,3.52.51,4.52,1.51,1,1.01,2.76,3.15,5.28,6.41,4.27,5.78,7.29,9.68,9.05,11.69l130.46,150.44v-121.79c0-13.57-2.77-24.25-8.29-32.05-5.53-7.79-13.2-11.69-23-11.69-.51,0-.75-.76-.75-2.26s.25-2.26.75-2.26l16.21.38c8.04.51,14.83.75,20.36.75,5.02,0,12.06-.25,21.11-.75l16.97-.38c.5,0,.75.75.75,2.26Z"/>
  </g>
</svg>